# xmcd
#
# Track frame offsets:
#	150
#	14164
#	27874
#	42029
#	52802
#	65251
#	78800
#	91458
#	102940
#	115972
#	130256
#	142969
#	156764
#	170461
#	183693
#	194955
#	207332
#	220812
#	235426
#	248394
#	257320
#	269804
#	281995
#
# Disc length: 3910 seconds
# Revision: 1
# Processed by: cddbd v1.5.2PL0 Copyright (c) Steve Scherf et al.
# Submitted via: dBpowerAMP V12.0
#
DISCID=510f4417
DTITLE=Lonnie Johnson - Chronological Classics 1948-1949
DYEAR=2007
DGENRE=Blues
TTITLE0=Pleasing You
TTITLE1=Good Night Darling
TTITLE2=Feel So Lonesome
TTITLE3=It's Too Late to Cry
TTITLE4=You're Mine You
TTITLE5=I Know It's Love
TTITLE6=Tell Me Little Woman
TTITLE7=Call Me Darling
TTITLE8=Tomorrow
TTITLE9=Lonesome Road
TTITLE10=So Tired
TTITLE11=Backwater Blues
TTITLE12=Careless Love
TTITLE13=Bewildered
TTITLE14=Matinee Hour in New Orleans
TTITLE15=Playing Around
TTITLE16=So Tired [alt.]
TTITLE17=My My Baby
TTITLE18=Don't Play Bad with My Love
TTITLE19=Not Until You Came My Way
TTITLE20=I Found a Dream
TTITLE21=You Take Romance
TTITLE22=She's So Sweet
EXTD=
EXTT0=
EXTT1=
EXTT2=
EXTT3=
EXTT4=
EXTT5=
EXTT6=
EXTT7=
EXTT8=
EXTT9=
EXTT10=
EXTT11=
EXTT12=
EXTT13=
EXTT14=
EXTT15=
EXTT16=
EXTT17=
EXTT18=
EXTT19=
EXTT20=
EXTT21=
EXTT22=
PLAYORDER=
